# xmcd
#
# Track frame offsets:
# 150
# 13440
# 27607
# 44347
# 62335
# 74588
# 89488
# 106504
# 119721
# 135407
# 151346
#
# Disc length: 2219 seconds
#
#
# Revision: 0
# Processed by: cddbd v1.5PL3 Copyright (c) Steve Scherf et al.
# Submitted via: FreeRIP 2.70 
#
DISCID=9708a90b
DTITLE=Cowgirls - Girls night out
DYEAR=1900
DGENRE=
TTITLE0=Girls night out
TTITLE1=Teach your children
TTITLE2=Heart trouble
TTITLE3=What kind of love
TTITLE4=Thats what i like about you
TTITLE5=If i needed you
TTITLE6=Ready to run
TTITLE7=Sweet dreams
TTITLE8=That heart is a gambler
TTITLE9=Some where under the rainbow
TTITLE10=Ride on
EXTD=
EXTT0=
EXTT1=
EXTT2=
EXTT3=
EXTT4=
EXTT5=
EXTT6=
EXTT7=
EXTT8=
EXTT9=
EXTT10=
PLAYORDER=
